HIERARCHY
ROOT root
{
	OFFSET 0.000000 0.000000 0.000000
	CHANNELS 6 Xposition Yposition Zposition Zrotation Yrotation Xrotation
	JOINT lhip
	{
		OFFSET 0.058581 -0.082280 -0.017664
		CHANNELS 3 Zrotation Yrotation Xrotation
		JOINT lknee
		{
			OFFSET 0.043451 -0.386469 0.008037
			CHANNELS 3 Zrotation Yrotation Xrotation
			JOINT lankle
			{
				OFFSET -0.014790 -0.426874 -0.037428
				CHANNELS 3 Zrotation Yrotation Xrotation
				JOINT ltoe
				{
					OFFSET 0.041054 -0.060286 0.122042
					CHANNELS 3 Zrotation Yrotation Xrotation
					End Site
					{
						OFFSET 0.000000 0.000000 0.000000
					}
				}
			}
		}
	}
	JOINT rhip
	{
		OFFSET -0.060310 -0.090513 -0.013543
		CHANNELS 3 Zrotation Yrotation Xrotation
		JOINT rknee
		{
			OFFSET -0.043257 -0.383688 -0.004843
			CHANNELS 3 Zrotation Yrotation Xrotation
			JOINT rankle
			{
				OFFSET 0.019056 -0.420046 -0.034562
				CHANNELS 3 Zrotation Yrotation Xrotation
				JOINT rtoe
				{
					OFFSET -0.034840 -0.062106 0.130323
					CHANNELS 3 Zrotation Yrotation Xrotation
					End Site
					{
						OFFSET 0.000000 0.000000 0.000000
					}
				}
			}
		}
	}
	JOINT lowerback
	{
		OFFSET 0.004439 0.124404 -0.038385
		CHANNELS 3 Zrotation Yrotation Xrotation
		JOINT upperback
		{
			OFFSET 0.004488 0.137956 0.026820
			CHANNELS 3 Zrotation Yrotation Xrotation
			JOINT chest
			{
				OFFSET -0.002265 0.056032 0.002855
				CHANNELS 3 Zrotation Yrotation Xrotation
				JOINT lowerneck
				{
					OFFSET -0.013390 0.211636 -0.033468
					CHANNELS 3 Zrotation Yrotation Xrotation
					JOINT upperneck
					{
						OFFSET 0.010113 0.088937 0.050410
						CHANNELS 3 Zrotation Yrotation Xrotation
						End Site
						{
							OFFSET 0.000000 0.000000 0.000000
						}
					}
				}
				JOINT lclavicle
				{
					OFFSET 0.071702 0.114000 -0.018898
					CHANNELS 3 Zrotation Yrotation Xrotation
					JOINT lshoulder
					{
						OFFSET 0.122921 0.045205 -0.019046
						CHANNELS 3 Zrotation Yrotation Xrotation
						JOINT lelbow
						{
							OFFSET 0.255332 -0.015649 -0.022946
							CHANNELS 3 Zrotation Yrotation Xrotation
							JOINT lwrist
							{
								OFFSET 0.265709 0.012698 -0.007375
								CHANNELS 3 Zrotation Yrotation Xrotation
								End Site
								{
									OFFSET 0.000000 0.000000 0.000000
								}
							}
						}
					}
				}
				JOINT rclavicle
				{
					OFFSET -0.082954 0.112472 -0.023707
					CHANNELS 3 Zrotation Yrotation Xrotation
					JOINT rshoulder
					{
						OFFSET -0.113228 0.046853 -0.008472
						CHANNELS 3 Zrotation Yrotation Xrotation
						JOINT relbow
						{
							OFFSET -0.260127 -0.014369 -0.031269
							CHANNELS 3 Zrotation Yrotation Xrotation
							JOINT rwrist
							{
								OFFSET -0.269108 0.006794 -0.006027
								CHANNELS 3 Zrotation Yrotation Xrotation
								End Site
								{
									OFFSET 0.000000 0.000000 0.000000
								}
							}
						}
					}
				}
			}
		}
	}
}
MOTION
Frames: 13
Frame Time: 0.033333
0.111283 -0.032561 0.993467 -168.616446 -2.434546 88.400409 11.206650 4.800374 -4.627801 -5.522839 5.877073 20.087067 0.036095 5.070743 -1.409619 0.000000 -0.000000 0.000000 -3.601812 -8.726652 6.551543 3.807611 -9.845665 -2.339354 -1.695819 -5.977896 -10.316919 0.000000 -0.000000 0.000000 0.713256 0.583896 2.398309 0.972111 -1.553656 7.069731 0.621324 -0.085306 -1.467827 -1.788678 -2.591026 -4.335914 -1.101209 -0.666833 5.245734 -32.521236 1.294803 6.292240 -57.420258 -7.517511 12.451890 12.740239 -31.145943 -3.923185 10.742079 -9.715897 -21.251600 29.066746 6.092635 6.284866 46.405263 11.359569 5.855356 -6.717753 6.267829 -19.326618 -5.090540 11.492031 -18.866605 
0.110774 -0.030285 0.993625 -168.891911 -2.473217 88.588412 11.142522 4.841478 -4.782396 -4.923367 5.388789 16.785919 -1.090092 5.406990 -3.757353 0.000000 -0.000000 0.000000 -3.548559 -8.625228 6.595687 3.584243 -9.607057 -2.487976 -0.929177 -6.083351 -10.487185 0.000000 -0.000000 0.000000 0.741831 0.652692 2.158060 0.770254 -1.581514 6.749513 0.859087 -0.142404 -1.006546 -1.788173 -2.048606 -5.001439 -1.372331 -0.242210 5.192527 -32.326658 1.230445 6.287240 -57.977522 -7.348719 12.215911 13.360143 -31.139186 -4.181637 10.280065 -10.018849 -21.429221 28.668237 6.151925 6.177658 46.656353 11.417549 5.811416 -6.715833 6.269250 -18.920861 -4.763252 11.681903 -18.856119 
0.109370 -0.028188 0.993812 -169.237708 -2.459864 88.771257 10.894927 4.767547 -4.455565 -3.909406 5.265163 11.954215 -2.539685 6.051738 -5.857460 0.000000 -0.000000 0.000000 -3.398877 -8.402147 6.594369 3.261529 -9.669681 -2.613147 -0.275029 -6.082898 -10.698135 0.000000 -0.000000 0.000000 0.891099 0.659909 2.053423 0.590306 -1.578860 6.570907 0.927755 -0.097863 -0.892497 -1.930242 -1.673782 -5.144903 -1.523666 -0.449368 4.833044 -32.130059 1.171264 6.229791 -58.333033 -7.115964 12.158576 13.665845 -30.924147 -4.341235 9.355479 -10.341275 -20.941077 28.417155 6.195458 6.205137 46.912802 11.322647 5.743416 -6.827214 6.428411 -18.957760 -4.341463 11.579944 -19.009444 
0.105672 -0.024854 0.993034 -169.984634 -2.155433 89.336186 10.818508 4.846479 -3.945028 -2.678682 4.683363 4.165579 -4.897424 5.946029 -7.794505 0.000000 -0.000000 0.000000 -3.203538 -7.921936 6.312071 3.207618 -9.452864 -2.897517 0.543313 -5.827462 -11.324153 0.000000 -0.000000 0.000000 1.373547 0.560072 1.652813 0.405684 -1.478614 6.572252 0.896004 -0.103091 -1.041867 -2.109753 -1.475574 -5.481986 -1.999895 -0.821113 4.446473 -32.065476 1.052964 6.188495 -58.463371 -6.810335 12.153146 13.554482 -29.837380 -4.678098 8.154672 -10.829299 -20.229239 28.360821 6.483948 6.220508 46.809097 11.462023 5.648811 -6.626068 6.187928 -19.600859 -4.057222 11.783787 -19.056374 
0.103984 -0.023477 0.992636 -170.115634 -2.014212 89.485761 10.786638 4.825647 -3.977657 -2.546022 3.850337 2.433017 -5.120466 5.699511 -7.758741 0.000000 -0.000000 0.000000 -3.186982 -7.884265 6.275176 3.258328 -9.303009 -2.871472 0.649329 -5.897087 -11.471567 0.000000 -0.000000 0.000000 1.422362 0.536199 1.387405 0.438939 -1.511662 6.700227 0.934228 -0.165605 -1.001491 -2.095952 -1.389648 -5.480313 -2.134121 -0.782234 4.301934 -32.105580 0.925745 6.238553 -58.500085 -6.727023 12.279762 13.645914 -29.553306 -4.657293 7.911316 -10.615510 -20.003972 28.361982 6.617366 6.160160 46.759733 11.436829 5.714514 -6.661035 6.235955 -19.754674 -3.926823 11.792636 -19.163606 
0.099850 -0.020843 0.991644 -170.466722 -1.661644 89.697306 10.854383 4.971238 -4.194792 -2.096455 2.573784 -0.184637 -5.570522 4.969154 -7.655545 0.000000 -0.000000 0.000000 -3.132386 -7.721789 6.326103 3.333138 -9.312475 -2.899722 0.935611 -5.658845 -11.727812 0.000000 -0.000000 0.000000 1.507670 0.342703 1.507406 0.467015 -1.598707 6.327892 1.055904 -0.189638 -1.072134 -1.935219 -1.005913 -5.608921 -2.355997 -0.506031 4.357221 -32.169293 1.042484 6.256477 -58.666659 -6.577643 12.158994 13.587375 -28.550103 -4.446531 7.226112 -10.902343 -19.606309 28.357827 6.708931 6.269048 46.680540 11.762921 5.682592 -6.718054 6.031954 -19.482325 -3.711603 12.051241 -18.976800 
0.094624 -0.017343 0.990665 -170.798988 -1.244904 89.886775 10.939633 5.176609 -4.696431 -2.149279 1.772708 -1.397983 -5.689239 3.694046 -7.394728 0.000000 -0.000000 0.000000 -3.085027 -7.723706 6.415865 3.400586 -9.018831 -2.907902 0.978985 -5.652963 -11.911669 0.000000 -0.000000 0.000000 1.505632 0.284250 1.097004 0.568730 -1.757164 6.585326 1.140706 -0.231165 -1.142744 -1.554352 -0.412628 -5.567616 -2.348037 -0.371005 4.304486 -32.306427 0.991291 6.283634 -58.898293 -6.664023 11.986080 13.730692 -27.227852 -4.593811 7.169550 -10.874659 -18.753441 28.525350 6.789773 6.290709 46.466099 12.054645 5.651313 -6.792175 5.948442 -19.121752 -3.737629 12.135357 -18.854083 
0.088364 -0.014235 0.989989 -171.488462 -0.929318 89.962246 10.866244 5.259531 -4.953934 -2.238588 1.281122 -1.278443 -6.020378 3.367251 -7.119984 0.000000 -0.000000 0.000000 -3.253882 -7.654476 6.483476 3.398540 -8.891142 -2.829726 1.203047 -5.366266 -11.985797 0.000000 -0.000000 0.000000 1.467437 0.361124 1.268700 0.611697 -1.796600 6.380285 1.152454 -0.206152 -1.148165 -1.298734 -0.135698 -5.670401 -2.359551 -0.210568 4.532261 -32.383956 0.988947 6.131617 -58.985208 -6.622719 11.899072 13.653878 -26.121674 -4.358025 7.491445 -10.712828 -18.324421 28.667794 6.812754 6.204445 46.438344 12.411951 5.662609 -6.940040 5.928927 -18.896612 -4.044868 12.208708 -18.872887 
0.081035 -0.010218 0.989045 -172.139019 -0.547577 89.888906 10.800913 5.370327 -5.007129 -2.305360 1.183036 -0.406966 -5.673892 3.419695 -6.875231 0.000000 -0.000000 0.000000 -3.436501 -7.712728 6.864311 3.386888 -8.493340 -2.955359 1.320062 -5.272648 -11.943640 0.000000 -0.000000 0.000000 1.411869 0.397629 1.310848 0.637890 -1.931532 6.389968 1.167551 -0.197292 -1.093173 -1.239927 0.064560 -5.661513 -2.162172 0.155716 4.788402 -32.319092 0.863107 6.200995 -59.156724 -6.479054 11.767720 13.641857 -25.340898 -4.294042 8.214570 -10.293454 -18.534816 28.646056 6.991089 6.288133 46.577289 12.610126 5.664835 -7.076985 6.537216 -18.795907 -4.764584 12.280813 -19.347237 
0.072734 -0.005795 0.988270 -173.081571 -0.068324 89.927324 10.879981 5.459322 -4.974471 -2.259310 1.182843 0.610867 -5.257558 3.569881 -6.826426 0.000000 -0.000000 0.000000 -3.579327 -7.721984 6.920823 3.308370 -7.942162 -2.528168 1.346911 -5.078727 -11.639125 0.000000 -0.000000 0.000000 1.314780 0.513295 1.329796 0.716467 -1.855205 6.264225 1.256039 -0.170014 -1.078409 -1.175443 0.188566 -5.385998 -1.992917 0.532405 4.867589 -32.263358 0.829679 6.225578 -59.283630 -6.200245 11.787529 13.470202 -24.777953 -4.255285 8.686192 -9.909698 -18.975866 28.629199 7.022429 6.258007 46.568561 12.742406 5.679586 -6.921405 6.677782 -19.029080 -4.805892 11.902423 -19.853919 
0.063267 -0.001160 0.987472 -174.169692 0.215988 90.176937 10.821791 5.527963 -4.995594 -2.286943 1.905861 1.147959 -4.640025 4.183665 -6.479552 0.000000 -0.000000 0.000000 -3.807977 -7.331027 6.516061 2.870575 -7.463289 -2.002865 1.545830 -5.086704 -11.635921 0.000000 -0.000000 0.000000 0.985960 0.704831 1.061150 0.830244 -1.597153 6.222216 1.272103 -0.162532 -1.080301 -0.969413 0.486877 -5.247402 -2.077919 0.564407 5.183668 -32.315764 0.989722 6.168608 -58.967623 -6.208094 11.676849 13.238604 -24.236901 -3.992242 7.570032 -10.244308 -18.214508 28.770943 6.868105 6.313352 46.599003 12.783617 5.943876 -7.243916 7.385965 -19.225095 -4.385779 11.903078 -20.147219 
0.051680 0.003778 0.987738 -175.607608 -0.240208 90.097987 9.629981 5.554925 -4.185945 -2.506292 0.081497 1.079205 -2.594299 7.604101 -5.565970 0.000000 -0.000000 0.000000 -5.027988 -6.295000 6.474450 2.572814 -6.614197 -1.688276 1.900099 -5.810271 -10.999530 0.000000 -0.000000 0.000000 0.095471 1.285811 1.511566 0.723385 -1.638093 6.871130 1.139523 -0.121093 -2.622266 -1.214473 1.863412 -3.857156 -1.084261 0.118206 5.013504 -31.270361 0.515032 5.242452 -59.277990 -4.825841 10.402872 11.950539 -23.433412 -5.980814 6.009966 -11.648486 -13.360549 28.224241 8.358588 6.074491 48.722077 10.398671 6.550223 -9.789169 9.110000 -20.398376 -1.768611 11.442856 -19.475876 
0.040389 0.008173 0.988316 -176.670320 -0.028725 90.279594 9.171492 5.713633 -4.266186 -2.531154 0.727888 1.893577 -1.986327 8.033534 -5.682638 0.000000 -0.000000 0.000000 -5.464151 -6.262288 5.679646 2.073942 -6.222641 -0.488831 2.271219 -5.642420 -10.640696 0.000000 -0.000000 0.000000 -0.214559 1.495910 1.651361 0.689433 -1.457768 6.762613 1.072055 0.018663 -2.823295 -1.109490 2.093466 -3.564771 -1.032580 0.378449 5.223225 -30.875184 0.595130 4.961351 -59.146689 -4.675598 10.744050 11.358464 -23.090549 -5.481140 5.287600 -12.138101 -12.774767 27.982809 8.149951 5.921352 49.354233 10.109960 6.806610 -10.057776 9.958340 -20.501473 -1.398759 11.685420 -19.569304 
